<svg width="137" height="40" viewBox="0 0 137 40" fill="none" xmlns="http://www.w3.org/2000/svg">
<path d="M45.689 29.541C43.961 29.541 42.494 29.244 41.286 28.65C40.097 28.037 39.187 27.173 38.556 26.058C37.924 24.925 37.571 23.569 37.496 21.99C37.458 20.3369 37.458 18.6831 37.496 17.03C37.571 15.47 37.924 14.123 38.556 12.99C39.1938 11.8686 40.155 10.9656 41.314 10.399C42.522 9.785 43.98 9.479 45.689 9.479C46.952 9.479 48.085 9.646 49.089 9.981C50.092 10.315 50.946 10.779 51.652 11.374C52.3392 11.9266 52.8998 12.6202 53.296 13.408C53.686 14.188 53.89 15.033 53.909 15.944C53.9195 16.022 53.9097 16.1014 53.8804 16.1745C53.8511 16.2476 53.8035 16.3118 53.742 16.361C53.6875 16.4161 53.6223 16.4594 53.5504 16.4883C53.4785 16.5172 53.4015 16.531 53.324 16.529H50.677C50.4991 16.5366 50.3233 16.4876 50.175 16.389C50.045 16.278 49.952 16.101 49.897 15.859C49.599 14.634 49.089 13.798 48.364 13.352C47.64 12.906 46.739 12.683 45.661 12.683C44.416 12.683 43.423 13.036 42.68 13.743C41.937 14.43 41.537 15.572 41.481 17.169C41.4252 18.7292 41.4252 20.2908 41.481 21.851C41.537 23.448 41.937 24.601 42.68 25.306C43.423 25.993 44.416 26.336 45.661 26.336C46.739 26.336 47.639 26.114 48.364 25.668C49.089 25.204 49.599 24.368 49.897 23.16C49.952 22.9 50.045 22.724 50.175 22.631C50.3233 22.5324 50.4991 22.4834 50.677 22.491H53.324C53.491 22.491 53.63 22.547 53.742 22.659C53.872 22.77 53.928 22.909 53.909 23.077C53.8975 23.9573 53.688 24.8237 53.296 25.612C52.8957 26.4051 52.336 27.1071 51.652 27.674C50.946 28.25 50.092 28.705 49.089 29.04C48.085 29.374 46.952 29.541 45.689 29.541ZM56.995 29.263C56.907 29.2645 56.8197 29.2479 56.7383 29.2144C56.657 29.1809 56.5834 29.131 56.522 29.068C56.4588 29.0065 56.4089 28.9327 56.3754 28.8512C56.3419 28.7697 56.3254 28.6821 56.327 28.594V10.148C56.327 9.962 56.392 9.804 56.522 9.674C56.5834 9.61095 56.657 9.56113 56.7383 9.5276C56.8197 9.49406 56.907 9.47752 56.995 9.479H59.308C59.494 9.479 59.652 9.544 59.782 9.674C59.912 9.804 59.977 9.962 59.977 10.148V28.594C59.9786 28.6821 59.9621 28.7697 59.9286 28.8512C59.8951 28.9327 59.8452 29.0065 59.782 29.068C59.7205 29.1312 59.6467 29.1811 59.5652 29.2146C59.4837 29.2481 59.3961 29.2646 59.308 29.263H56.995ZM69.335 29.541C67.272 29.541 65.637 28.947 64.43 27.758C63.222 26.569 62.572 24.878 62.48 22.687C62.4594 22.4553 62.4501 22.2226 62.452 21.99C62.452 21.693 62.461 21.46 62.479 21.294C62.554 19.9 62.869 18.693 63.427 17.671C63.9736 16.6785 64.7961 15.8657 65.795 15.331C66.798 14.773 67.978 14.495 69.335 14.495C70.839 14.495 72.102 14.81 73.124 15.442C74.145 16.055 74.916 16.919 75.436 18.033C75.956 19.129 76.216 20.402 76.216 21.851V22.436C76.2177 22.5241 76.2014 22.6116 76.1681 22.6931C76.1347 22.7746 76.085 22.8484 76.022 22.91C75.9561 22.975 75.8775 23.0259 75.7912 23.0594C75.7048 23.0929 75.6125 23.1084 75.52 23.105H66.269V23.328C66.287 23.978 66.409 24.581 66.631 25.138C66.8561 25.6562 67.2113 26.1074 67.662 26.448C68.127 26.783 68.675 26.95 69.306 26.95C69.826 26.95 70.263 26.876 70.616 26.727C71.1411 26.4874 71.6002 26.124 71.954 25.668C72.12 25.445 72.25 25.315 72.344 25.278C72.454 25.222 72.613 25.195 72.817 25.195H75.213C75.2948 25.1909 75.3766 25.2036 75.4533 25.2324C75.53 25.2611 75.6 25.3052 75.659 25.362C75.789 25.473 75.845 25.612 75.826 25.78C75.808 26.077 75.65 26.44 75.353 26.866C75.074 27.294 74.665 27.712 74.127 28.12C73.588 28.529 72.91 28.873 72.093 29.151C71.293 29.411 70.375 29.541 69.335 29.541ZM66.269 20.764H72.427V20.68C72.427 19.956 72.307 19.324 72.065 18.786C71.8398 18.2671 71.4723 17.8227 71.005 17.504C70.542 17.188 69.985 17.03 69.335 17.03C68.684 17.03 68.127 17.188 67.662 17.504C67.1951 17.8228 66.8279 18.2673 66.603 18.786C66.38 19.324 66.269 19.956 66.269 20.68V20.764ZM82.801 29.541C81.835 29.541 80.962 29.356 80.182 28.984C79.402 28.594 78.78 28.084 78.315 27.451C77.8729 26.8132 77.6391 26.0541 77.646 25.278C77.646 23.978 78.166 22.947 79.206 22.185C80.266 21.405 81.659 20.885 83.386 20.625L87.204 20.067V19.482C87.204 18.702 87.009 18.098 86.619 17.672C86.229 17.244 85.559 17.03 84.612 17.03C83.944 17.03 83.396 17.17 82.969 17.448C82.559 17.708 82.253 18.061 82.049 18.507C81.9855 18.62 81.8923 18.7135 81.7795 18.7773C81.6667 18.8411 81.5386 18.8728 81.409 18.869H79.207C79.003 18.869 78.845 18.814 78.733 18.702C78.6347 18.5748 78.5851 18.4166 78.593 18.256C78.613 17.959 78.733 17.596 78.956 17.169C79.179 16.742 79.532 16.334 80.015 15.943C80.498 15.535 81.12 15.191 81.882 14.913C82.643 14.633 83.563 14.495 84.64 14.495C85.81 14.495 86.795 14.643 87.594 14.94C88.411 15.219 89.062 15.6 89.544 16.083C90.028 16.566 90.381 17.133 90.604 17.783C90.826 18.433 90.938 19.12 90.938 19.844V28.594C90.9396 28.6821 90.9231 28.7697 90.8896 28.8512C90.8561 28.9327 90.8062 29.0065 90.743 29.068C90.6815 29.1312 90.6077 29.1811 90.5262 29.2146C90.4447 29.2481 90.3571 29.2646 90.269 29.263H88.012C87.9194 29.2665 87.8272 29.2509 87.7408 29.2174C87.6545 29.1839 87.576 29.133 87.51 29.068C87.3978 28.936 87.3384 28.7672 87.343 28.594V27.507C87.0724 27.8902 86.7434 28.2287 86.368 28.51C85.959 28.808 85.458 29.058 84.863 29.263C84.287 29.448 83.6 29.541 82.801 29.541ZM83.749 26.894C84.399 26.894 84.984 26.754 85.504 26.476C86.043 26.198 86.461 25.77 86.758 25.195C87.074 24.6 87.232 23.857 87.232 22.965V22.38L84.445 22.826C83.349 22.993 82.532 23.263 81.993 23.634C81.455 24.006 81.185 24.461 81.185 24.999C81.185 25.409 81.306 25.761 81.547 26.059C81.807 26.337 82.133 26.551 82.523 26.699C82.913 26.829 83.322 26.894 83.749 26.894ZM94.6 29.263C94.5119 29.2646 94.4243 29.2481 94.3428 29.2146C94.2613 29.1811 94.1875 29.1312 94.126 29.068C94.0628 29.0065 94.0129 28.9327 93.9794 28.8512C93.9459 28.7697 93.9294 28.6821 93.931 28.594V15.442C93.931 15.256 93.996 15.098 94.126 14.968C94.1875 14.9048 94.2613 14.8549 94.3428 14.8214C94.4243 14.7879 94.5119 14.7714 94.6 14.773H96.885C97.07 14.773 97.228 14.838 97.358 14.968C97.488 15.098 97.553 15.256 97.553 15.442V16.584C98.059 15.9714 98.6852 15.4691 99.393 15.108C100.154 14.698 101.092 14.495 102.207 14.495C103.34 14.495 104.324 14.755 105.16 15.275C105.996 15.776 106.637 16.491 107.083 17.42C107.547 18.35 107.78 19.464 107.78 20.764V28.594C107.782 28.6822 107.765 28.7699 107.731 28.8514C107.698 28.933 107.647 29.0067 107.584 29.068C107.523 29.1311 107.449 29.181 107.368 29.2146C107.286 29.2481 107.199 29.2646 107.111 29.263H104.659C104.571 29.2646 104.483 29.2481 104.402 29.2146C104.32 29.1811 104.246 29.1312 104.185 29.068C104.122 29.0065 104.072 28.9327 104.038 28.8512C104.005 28.7697 103.988 28.6821 103.99 28.594V20.93C103.99 19.853 103.721 19.008 103.182 18.395C102.662 17.782 101.9 17.475 100.897 17.475C99.931 17.475 99.16 17.782 98.584 18.395C98.008 19.008 97.721 19.853 97.721 20.93V28.593C97.7225 28.6812 97.7059 28.7688 97.6721 28.8503C97.6384 28.9319 97.5884 29.0056 97.525 29.067C97.4636 29.13 97.39 29.1799 97.3087 29.2134C97.2273 29.2469 97.14 29.2635 97.052 29.262H94.6V29.263ZM116.98 29.541C114.918 29.541 113.283 28.947 112.076 27.758C110.869 26.569 110.218 24.878 110.125 22.687C110.105 22.4552 110.096 22.2226 110.098 21.99C110.098 21.693 110.107 21.46 110.125 21.294C110.2 19.9 110.516 18.693 111.073 17.671C111.62 16.6785 112.442 15.8657 113.441 15.331C114.444 14.773 115.624 14.495 116.98 14.495C118.485 14.495 119.748 14.81 120.77 15.442C121.791 16.055 122.562 16.919 123.082 18.033C123.603 19.129 123.863 20.402 123.863 21.851V22.436C123.865 22.5241 123.848 22.6117 123.815 22.6932C123.781 22.7747 123.731 22.8485 123.668 22.91C123.602 22.975 123.523 23.0258 123.437 23.0593C123.351 23.0928 123.259 23.1084 123.166 23.105H113.915V23.328C113.928 23.948 114.05 24.5608 114.277 25.138C114.519 25.678 114.862 26.114 115.308 26.448C115.773 26.783 116.321 26.95 116.952 26.95C117.472 26.95 117.909 26.876 118.262 26.727C118.787 26.4878 119.246 26.1243 119.599 25.668C119.767 25.445 119.897 25.315 119.989 25.278C120.101 25.222 120.259 25.195 120.463 25.195H122.859C122.941 25.1909 123.023 25.2036 123.099 25.2324C123.176 25.2611 123.246 25.3052 123.305 25.362C123.435 25.473 123.491 25.612 123.473 25.78C123.454 26.077 123.296 26.44 122.999 26.866C122.72 27.294 122.311 27.712 121.773 28.12C121.234 28.529 120.556 28.873 119.739 29.151C118.94 29.411 118.02 29.541 116.98 29.541ZM113.915 20.764H120.073V20.68C120.073 19.956 119.952 19.324 119.711 18.786C119.486 18.2674 119.119 17.8231 118.652 17.504C118.188 17.188 117.63 17.03 116.98 17.03C116.33 17.03 115.773 17.188 115.308 17.504C114.841 17.8231 114.474 18.2674 114.249 18.786C114.026 19.324 113.915 19.956 113.915 20.68V20.764ZM126.909 29.263C126.821 29.2646 126.733 29.2481 126.652 29.2146C126.57 29.1811 126.496 29.1312 126.435 29.068C126.372 29.0065 126.322 28.9327 126.288 28.8512C126.255 28.7697 126.238 28.6821 126.24 28.594V15.47C126.24 15.265 126.305 15.098 126.435 14.968C126.496 14.9048 126.57 14.8549 126.652 14.8214C126.733 14.7879 126.821 14.7714 126.909 14.773H129.166C129.351 14.773 129.509 14.838 129.639 14.968C129.788 15.098 129.862 15.265 129.862 15.47V16.612C130.283 16.0227 130.849 15.5525 131.506 15.247C132.194 14.931 132.983 14.773 133.875 14.773H135.017C135.221 14.773 135.379 14.838 135.491 14.968C135.621 15.098 135.686 15.256 135.686 15.442V17.448C135.688 17.5361 135.671 17.6237 135.638 17.7052C135.604 17.7867 135.554 17.8605 135.491 17.922C135.379 18.052 135.221 18.117 135.017 18.117H132.844C131.952 18.117 131.255 18.367 130.754 18.869C130.271 19.371 130.029 20.059 130.029 20.931V28.594C130.031 28.6821 130.014 28.7697 129.981 28.8512C129.947 28.9327 129.897 29.0065 129.834 29.068C129.768 29.1329 129.69 29.1837 129.604 29.2173C129.517 29.2508 129.425 29.2664 129.333 29.263H126.909Z" fill="white"/>
<path d="M23.22 6.068H4.644C2.07919 6.068 0 8.14719 0 10.712V29.288C0 31.8528 2.07919 33.932 4.644 33.932H23.22C25.7848 33.932 27.864 31.8528 27.864 29.288V10.712C27.864 8.14719 25.7848 6.068 23.22 6.068Z" fill="#443DFC"/>
<mask id="mask0_10143_2" style="mask-type:luminance" maskUnits="userSpaceOnUse" x="2" y="8" width="24" height="24">
<path d="M7.424 8.581L25.741 13.489L20.833 31.806L2.516 26.898L7.424 8.581Z" fill="white"/>
</mask>
<g mask="url(#mask0_10143_2)">
<path d="M20.082 15.03L22.324 15.63C22.5412 15.6881 22.7264 15.8301 22.8389 16.0248C22.9514 16.2194 22.982 16.4508 22.924 16.668L21.946 20.32C21.8874 20.537 21.7451 20.7219 21.5503 20.8341C21.3555 20.9462 21.1241 20.9764 20.907 20.918L13.447 18.918L12.879 21.038" stroke="white" stroke-width="1.161" stroke-miterlimit="10" stroke-linecap="round" stroke-linejoin="round"/>
<path d="M19.76 18.001L8.437 14.967C8.29737 14.9296 8.16647 14.8651 8.05179 14.7771C7.9371 14.6892 7.84088 14.5794 7.76863 14.4542C7.69637 14.3291 7.6495 14.1908 7.63069 14.0475C7.61188 13.9042 7.6215 13.7586 7.659 13.619L8.618 10.039C8.69347 9.75722 8.87778 9.51695 9.13039 9.37105C9.38299 9.22515 9.68321 9.18557 9.965 9.261L21.29 12.296C21.5718 12.3715 21.8121 12.5558 21.958 12.8084C22.1039 13.061 22.1434 13.3612 22.068 13.643L21.109 17.223C21.0335 17.5048 20.8492 17.745 20.5966 17.8909C20.344 18.0368 20.0438 18.0764 19.762 18.001H19.76Z" fill="#FED00E"/>
<path d="M11.414 28.899L10.214 28.577C10.0092 28.5221 9.83451 28.3882 9.72838 28.2046C9.62225 28.0211 9.59334 27.8029 9.64801 27.598L11.463 20.827L14.208 21.562L12.393 28.334C12.3379 28.5386 12.2039 28.7131 12.0204 28.819C11.8368 28.9249 11.6187 28.9537 11.414 28.899Z" stroke="white" stroke-width="1.161" stroke-miterlimit="10" stroke-linecap="round" stroke-linejoin="round"/>
</g>
</svg>
