<svg xmlns="http://www.w3.org/2000/svg" width="137" height="40" fill="none"><path fill="#0F0D39" d="M45.689 29.541c-1.728 0-3.195-.297-4.403-.891-1.189-.613-2.099-1.477-2.73-2.592-.632-1.133-.985-2.489-1.06-4.068a107.882 107.882 0 0 1 0-4.96c.075-1.56.428-2.907 1.06-4.04a6.413 6.413 0 0 1 2.758-2.591c1.208-.614 2.666-.92 4.375-.92 1.263 0 2.396.167 3.4.502 1.003.334 1.857.798 2.563 1.393a6.165 6.165 0 0 1 1.644 2.034c.39.78.594 1.625.613 2.536a.456.456 0 0 1-.167.417.567.567 0 0 1-.418.168h-2.647a.842.842 0 0 1-.502-.14c-.13-.111-.223-.288-.278-.53-.298-1.225-.808-2.061-1.533-2.507-.724-.446-1.625-.669-2.703-.669-1.245 0-2.238.353-2.981 1.06-.743.687-1.143 1.829-1.199 3.426a65.467 65.467 0 0 0 0 4.682c.056 1.597.456 2.75 1.199 3.455.743.687 1.736 1.03 2.981 1.03 1.078 0 1.978-.222 2.703-.668.725-.464 1.235-1.3 1.533-2.508.055-.26.148-.436.278-.529a.842.842 0 0 1 .502-.14h2.647c.167 0 .306.056.418.168.13.111.186.25.167.418a5.865 5.865 0 0 1-.613 2.535 6.457 6.457 0 0 1-1.644 2.062c-.706.576-1.56 1.031-2.563 1.366-1.004.334-2.137.501-3.4.501zm11.306-.278a.645.645 0 0 1-.473-.195.645.645 0 0 1-.195-.474V10.148c0-.186.065-.344.195-.474a.645.645 0 0 1 .473-.195h2.313c.186 0 .344.065.474.195s.195.288.195.474v18.446a.645.645 0 0 1-.195.474.645.645 0 0 1-.474.195h-2.313zm12.34.278c-2.063 0-3.698-.594-4.905-1.783-1.208-1.189-1.858-2.88-1.95-5.071a7.198 7.198 0 0 1-.028-.697c0-.297.009-.53.027-.696.075-1.394.39-2.601.948-3.623a5.861 5.861 0 0 1 2.368-2.34c1.003-.558 2.183-.836 3.54-.836 1.504 0 2.767.315 3.789.947 1.021.613 1.792 1.477 2.312 2.591.52 1.096.78 2.369.78 3.818v.585a.645.645 0 0 1-.194.474.679.679 0 0 1-.502.195h-9.251v.223c.018.65.14 1.253.362 1.81a3.28 3.28 0 0 0 1.031 1.31c.465.335 1.013.502 1.644.502.52 0 .957-.074 1.31-.223a3.568 3.568 0 0 0 1.338-1.059c.166-.223.296-.353.39-.39.11-.056.269-.083.473-.083h2.396a.6.6 0 0 1 .446.167c.13.111.186.25.167.418-.018.297-.176.66-.473 1.086-.279.428-.688.846-1.226 1.254-.539.409-1.217.753-2.034 1.031-.8.26-1.719.39-2.759.39zm-3.066-8.777h6.158v-.084c0-.724-.12-1.356-.362-1.894a2.995 2.995 0 0 0-1.06-1.282c-.463-.316-1.02-.474-1.67-.474-.651 0-1.208.158-1.673.474a2.995 2.995 0 0 0-1.059 1.282c-.223.538-.334 1.17-.334 1.894v.084zm16.532 8.777c-.966 0-1.839-.185-2.619-.557-.78-.39-1.402-.9-1.867-1.533a3.756 3.756 0 0 1-.669-2.173c0-1.3.52-2.331 1.56-3.093 1.06-.78 2.453-1.3 4.18-1.56l3.818-.558v-.585c0-.78-.195-1.384-.585-1.81-.39-.428-1.06-.642-2.007-.642-.668 0-1.216.14-1.643.418-.41.26-.716.613-.92 1.059a.71.71 0 0 1-.64.362h-2.202c-.204 0-.362-.055-.474-.167a.675.675 0 0 1-.14-.446c.02-.297.14-.66.363-1.087.223-.427.576-.835 1.059-1.226.483-.408 1.105-.752 1.867-1.03.761-.28 1.681-.418 2.758-.418 1.17 0 2.155.148 2.954.445.817.279 1.468.66 1.95 1.143.484.483.837 1.05 1.06 1.7.222.65.334 1.337.334 2.061v8.75a.645.645 0 0 1-.195.474.645.645 0 0 1-.474.195h-2.257a.679.679 0 0 1-.502-.195.703.703 0 0 1-.167-.474v-1.087a4.49 4.49 0 0 1-.975 1.003c-.409.298-.91.548-1.505.753-.576.185-1.263.278-2.062.278zm.948-2.647c.65 0 1.235-.14 1.755-.418.539-.278.957-.706 1.254-1.281.316-.595.474-1.338.474-2.23v-.585l-2.787.446c-1.096.167-1.913.437-2.452.808-.538.372-.808.827-.808 1.365 0 .41.121.762.362 1.06.26.278.586.492.976.64.39.13.799.195 1.226.195zM94.6 29.263a.645.645 0 0 1-.474-.195.645.645 0 0 1-.195-.474V15.442c0-.186.065-.344.195-.474a.645.645 0 0 1 .474-.195h2.285c.185 0 .343.065.473.195.13.13.195.288.195.474v1.142a5.812 5.812 0 0 1 1.84-1.476c.761-.41 1.699-.613 2.814-.613 1.133 0 2.117.26 2.953.78.836.501 1.477 1.216 1.923 2.145.464.93.697 2.044.697 3.344v7.83a.642.642 0 0 1-.196.474.643.643 0 0 1-.473.195h-2.452a.645.645 0 0 1-.474-.195.645.645 0 0 1-.195-.474V20.93c0-1.077-.269-1.922-.808-2.535-.52-.613-1.282-.92-2.285-.92-.966 0-1.737.307-2.313.92-.576.613-.863 1.458-.863 2.535v7.663a.645.645 0 0 1-.196.474.645.645 0 0 1-.473.195H94.6zm22.38.278c-2.062 0-3.697-.594-4.904-1.783-1.207-1.189-1.858-2.88-1.951-5.071a7.437 7.437 0 0 1-.027-.697c0-.297.009-.53.027-.696.075-1.394.391-2.601.948-3.623a5.861 5.861 0 0 1 2.368-2.34c1.003-.558 2.183-.836 3.539-.836 1.505 0 2.768.315 3.79.947 1.021.613 1.792 1.477 2.312 2.591.521 1.096.781 2.369.781 3.818v.585a.645.645 0 0 1-.195.474.68.68 0 0 1-.502.195h-9.251v.223a5.25 5.25 0 0 0 .362 1.81c.242.54.585.976 1.031 1.31.465.335 1.013.502 1.644.502.52 0 .957-.074 1.31-.223a3.554 3.554 0 0 0 1.337-1.059c.168-.223.298-.353.39-.39.112-.056.27-.083.474-.083h2.396a.6.6 0 0 1 .446.167c.13.111.186.25.168.418-.019.297-.177.66-.474 1.086-.279.428-.688.846-1.226 1.254-.539.409-1.217.753-2.034 1.031-.799.26-1.719.39-2.759.39zm-3.065-8.777h6.158v-.084c0-.724-.121-1.356-.362-1.894a3.001 3.001 0 0 0-1.059-1.282c-.464-.316-1.022-.474-1.672-.474-.65 0-1.207.158-1.672.474a3.001 3.001 0 0 0-1.059 1.282c-.223.538-.334 1.17-.334 1.894v.084zm12.994 8.499a.645.645 0 0 1-.474-.195.645.645 0 0 1-.195-.474V15.47c0-.205.065-.372.195-.502a.645.645 0 0 1 .474-.195h2.257c.185 0 .343.065.473.195.149.13.223.297.223.502v1.142a4.195 4.195 0 0 1 1.644-1.365c.688-.316 1.477-.474 2.369-.474h1.142c.204 0 .362.065.474.195.13.13.195.288.195.474v2.006a.645.645 0 0 1-.195.474c-.112.13-.27.195-.474.195h-2.173c-.892 0-1.589.25-2.09.752-.483.502-.725 1.19-.725 2.062v7.663a.645.645 0 0 1-.195.474.678.678 0 0 1-.501.195h-2.424z"/><rect width="27.864" height="27.864" y="6.068" fill="#443DFC" rx="4.644"/><mask id="a" width="24" height="24" x="2" y="8" maskUnits="userSpaceOnUse" style="mask-type:luminance"><path fill="#fff" d="m7.424 8.581 18.317 4.908-4.908 18.317-18.317-4.908L7.424 8.581z"/></mask><g mask="url(#a)"><path stroke="#fff" stroke-linecap="round" stroke-linejoin="round" stroke-miterlimit="10" stroke-width="1.161" d="m20.082 15.03 2.242.6a.848.848 0 0 1 .6 1.038l-.978 3.652a.848.848 0 0 1-1.039.598l-7.46-2-.568 2.12"/><path fill="#FED00E" d="M19.76 18.001 8.437 14.967a1.1 1.1 0 0 1-.778-1.348l.959-3.58a1.1 1.1 0 0 1 1.347-.778l11.325 3.035a1.1 1.1 0 0 1 .778 1.347l-.959 3.58a1.1 1.1 0 0 1-1.347.778z"/><path stroke="#fff" stroke-linecap="round" stroke-linejoin="round" stroke-miterlimit="10" stroke-width="1.161" d="m11.414 28.899-1.2-.322a.8.8 0 0 1-.566-.979l1.815-6.771 2.745.735-1.815 6.772a.8.8 0 0 1-.979.565z"/></g></svg>