<svg xmlns="http://www.w3.org/2000/svg" width="185" height="51" fill="none"><path fill="#094B79" d="M60.851 21.772c0 1.588.357 2.98 1.07 4.176.736 1.174 1.691 2.083 2.865 2.727 1.173.621 2.45.932 3.83.932 1.151 0 2.175-.15 3.072-.449a9.135 9.135 0 0 0 2.416-1.208 10.327 10.327 0 0 0 1.898-1.656v5.556a11.93 11.93 0 0 1-3.244 1.83c-1.15.436-2.611.655-4.383.655-1.84 0-3.555-.3-5.142-.897a12.095 12.095 0 0 1-4.107-2.589 12.125 12.125 0 0 1-2.692-3.969c-.621-1.541-.932-3.244-.932-5.108 0-1.863.31-3.554.932-5.073a12.035 12.035 0 0 1 2.692-4.003 12.093 12.093 0 0 1 4.107-2.589c1.587-.598 3.301-.897 5.142-.897 1.772 0 3.233.219 4.383.656a11.897 11.897 0 0 1 3.244 1.829v5.556a10.327 10.327 0 0 0-1.898-1.656 9.135 9.135 0 0 0-2.416-1.208c-.897-.3-1.921-.449-3.071-.449-1.38 0-2.658.322-3.831.966-1.174.622-2.129 1.519-2.865 2.692-.713 1.174-1.07 2.566-1.07 4.176zm22.133 7.144c0 .46.115.863.345 1.208.23.323.54.576.932.76a3.7 3.7 0 0 0 1.346.241c.69 0 1.311-.138 1.863-.414a3.672 3.672 0 0 0 1.346-1.242c.345-.553.518-1.208.518-1.968l.552 2.071c0 1.012-.287 1.864-.863 2.554-.552.69-1.277 1.208-2.174 1.553a7.45 7.45 0 0 1-2.761.518c-.99 0-1.91-.196-2.76-.587a5.146 5.146 0 0 1-2.072-1.691c-.506-.76-.759-1.68-.759-2.761 0-1.542.54-2.76 1.622-3.658 1.082-.898 2.612-1.346 4.59-1.346 1.013 0 1.898.103 2.658.31.782.207 1.438.46 1.967.76.53.299.909.586 1.139.863v2.07a6.661 6.661 0 0 0-2.105-1.035 8.287 8.287 0 0 0-2.416-.345c-.69 0-1.254.092-1.691.276-.438.16-.76.402-.967.724-.207.3-.31.68-.31 1.14zm-1.726-6.453-1.656-3.037c.828-.438 1.84-.852 3.036-1.243 1.197-.414 2.531-.621 4.004-.621 1.357 0 2.565.195 3.624.587 1.058.39 1.886.966 2.485 1.725.598.736.897 1.645.897 2.727v11.25h-4.314V23.533c0-.437-.07-.805-.207-1.104a1.825 1.825 0 0 0-.656-.794 2.661 2.661 0 0 0-1-.448 5.738 5.738 0 0 0-1.312-.138c-.737 0-1.438.08-2.106.241a8.878 8.878 0 0 0-1.725.587c-.483.23-.84.426-1.07.587zm20.241 18.981h-4.487V17.976h4.487v23.468zm13.046-15.53c0 1.794-.357 3.325-1.07 4.59-.714 1.265-1.657 2.22-2.83 2.864a7.506 7.506 0 0 1-3.728.967c-1.357 0-2.542-.345-3.554-1.035-.99-.69-1.761-1.669-2.313-2.934-.529-1.265-.794-2.75-.794-4.452 0-1.726.265-3.21.794-4.452.552-1.266 1.323-2.244 2.313-2.934 1.012-.69 2.197-1.035 3.554-1.035 1.335 0 2.577.322 3.728.966 1.173.645 2.116 1.6 2.83 2.865.713 1.242 1.07 2.772 1.07 4.59zm-4.625 0c0-.943-.196-1.749-.587-2.416a3.876 3.876 0 0 0-1.587-1.518 4.463 4.463 0 0 0-2.14-.518c-.667 0-1.323.172-1.967.518-.622.322-1.139.816-1.553 1.483-.392.668-.587 1.485-.587 2.45 0 .967.195 1.784.587 2.451.414.668.931 1.174 1.553 1.519.644.322 1.3.483 1.967.483.782 0 1.495-.173 2.14-.518a3.876 3.876 0 0 0 1.587-1.518c.391-.667.587-1.473.587-2.416zm5.231-7.938h9.801v3.762h-9.801v-3.762zm2.726-5.522h4.314v21.398h-4.314V12.454zm16.254 21.743c-1.726 0-3.233-.345-4.522-1.036-1.288-.69-2.289-1.645-3.002-2.864-.69-1.242-1.036-2.704-1.036-4.383 0-1.703.346-3.164 1.036-4.383a7.211 7.211 0 0 1 3.002-2.865c1.289-.69 2.807-1.035 4.556-1.035s3.233.322 4.452.966a6.314 6.314 0 0 1 2.83 2.761c.644 1.197.966 2.646.966 4.349 0 .207-.011.425-.034.655 0 .23-.012.415-.035.553h-14.219v-2.761h10.32l-1.208 1.587c.092-.138.172-.322.241-.552.092-.253.138-.46.138-.621 0-.782-.149-1.45-.448-2.002a3.17 3.17 0 0 0-1.208-1.311c-.53-.322-1.151-.483-1.864-.483-.874 0-1.611.195-2.209.586-.575.368-1.024.932-1.346 1.691-.299.737-.46 1.657-.483 2.761 0 1.059.15 1.956.449 2.692.322.737.793 1.3 1.415 1.691.621.391 1.369.587 2.243.587.989 0 1.829-.184 2.519-.552.714-.391 1.3-.966 1.761-1.726l3.899 1.208c-.828 1.496-1.932 2.623-3.313 3.382-1.357.737-2.991 1.105-4.9 1.105zm15.347-16.221v15.876h-4.383V17.976h4.383zm4.659 4.66a3.297 3.297 0 0 0-.932-.622c-.299-.161-.679-.242-1.139-.242-.552 0-1.024.15-1.415.45-.391.298-.69.724-.897 1.276-.184.53-.276 1.173-.276 1.933l-1.243-1.243c0-1.265.242-2.381.725-3.347.483-.99 1.116-1.772 1.898-2.347.782-.599 1.588-.898 2.416-.898.575 0 1.116.104 1.622.311.529.207.955.518 1.277.932l-2.036 3.796zm8.098-4.66v15.876h-4.383V17.976h4.383zm4.659 4.66a3.297 3.297 0 0 0-.932-.622c-.299-.161-.678-.242-1.139-.242-.552 0-1.023.15-1.415.45-.391.298-.69.724-.897 1.276-.184.53-.276 1.173-.276 1.933l-1.242-1.243c0-1.265.241-2.381.724-3.347.484-.99 1.116-1.772 1.899-2.347.782-.599 1.587-.898 2.415-.898a4.24 4.24 0 0 1 1.622.311c.53.207.955.518 1.277.932l-2.036 3.796zm6.891 6.28c0 .46.115.863.345 1.208.23.323.54.576.931.76.415.16.863.241 1.346.241.691 0 1.312-.138 1.864-.414a3.673 3.673 0 0 0 1.346-1.242c.345-.553.518-1.208.518-1.968l.552 2.071c0 1.012-.288 1.864-.863 2.554-.552.69-1.277 1.208-2.174 1.553a7.45 7.45 0 0 1-2.761.518c-.989 0-1.91-.196-2.761-.587a5.147 5.147 0 0 1-2.071-1.691c-.506-.76-.759-1.68-.759-2.761 0-1.542.541-2.76 1.622-3.658 1.081-.898 2.611-1.346 4.59-1.346 1.012 0 1.898.103 2.658.31.782.207 1.438.46 1.967.76.529.299.909.586 1.139.863v2.07a6.666 6.666 0 0 0-2.106-1.035 8.28 8.28 0 0 0-2.415-.345c-.691 0-1.254.092-1.692.276-.437.16-.759.402-.966.724-.207.3-.31.68-.31 1.14zm-1.726-6.453-1.657-3.037c.829-.438 1.841-.852 3.037-1.243 1.197-.414 2.531-.621 4.004-.621 1.357 0 2.565.195 3.624.587 1.058.39 1.886.966 2.484 1.725.599.736.898 1.645.898 2.727v11.25h-4.314V23.533c0-.437-.069-.805-.207-1.104a1.827 1.827 0 0 0-.656-.794 2.662 2.662 0 0 0-1.001-.448 5.735 5.735 0 0 0-1.311-.138c-.737 0-1.438.08-2.106.241a8.872 8.872 0 0 0-2.795 1.174z"/><path fill="#6DC3E0" d="M53.663 0 3.975 19.875l18.537 8.385L48.695 4.97 25.41 31.159l8.383 18.53L53.663 0z"/><path fill="#EC9E2B" d="M36.782 8.944 0 20.869l18.542 8.385 18.24-20.31z"/><path fill="#094B79" d="m33.855 50.276-1.462-28.41-15.494 1.564 16.956 26.846z"/></svg>