<svg xmlns="http://www.w3.org/2000/svg" width="186" height="46" fill="none"><g clip-path="url(#a)"><path fill="#050505" d="M48.88 16.488h18.833v3.514h-7.405v19.753h-4.072V20.002h-7.373v-3.514h.017zm18.028 6.42h3.481v3.251h.066c.115-.46.328-.903.64-1.33a5.92 5.92 0 0 1 1.133-1.182 6.06 6.06 0 0 1 1.478-.87 4.522 4.522 0 0 1 1.658-.328c.427 0 .74.016.903.032.165.017.329.05.51.066v3.58c-.263-.05-.526-.083-.805-.115a6.81 6.81 0 0 0-.805-.05c-.624 0-1.215.132-1.773.378-.558.246-1.034.624-1.445 1.1-.41.493-.739 1.084-.985 1.806-.246.723-.361 1.544-.361 2.48v8.012h-3.711v-16.83h.016zm26.928 16.847h-3.645v-2.348h-.066c-.46.854-1.132 1.527-2.036 2.036-.903.509-1.822.771-2.758.771-2.217 0-3.826-.541-4.81-1.642-.986-1.1-1.479-2.758-1.479-4.975V22.908h3.711v10.328c0 1.478.28 2.529.854 3.136.558.608 1.363.92 2.38.92.789 0 1.43-.115 1.955-.361.525-.247.952-.559 1.264-.97.328-.393.558-.886.706-1.444a7.115 7.115 0 0 0 .213-1.823v-9.77h3.711v16.83zm6.322-5.402c.115 1.083.525 1.839 1.231 2.282.723.427 1.576.657 2.578.657.345 0 .739-.033 1.182-.082.444-.05.871-.165 1.248-.312.394-.148.706-.378.969-.674.246-.295.361-.673.345-1.149-.017-.476-.197-.87-.526-1.166-.328-.312-.739-.541-1.248-.739a12.517 12.517 0 0 0-1.74-.476c-.657-.131-1.314-.279-1.987-.427a18.866 18.866 0 0 1-2.003-.558 6.116 6.116 0 0 1-1.724-.886 3.9 3.9 0 0 1-1.215-1.413c-.312-.574-.46-1.28-.46-2.134 0-.92.23-1.675.673-2.299a5.102 5.102 0 0 1 1.692-1.494 7.841 7.841 0 0 1 2.282-.805 13.97 13.97 0 0 1 2.397-.23c.87 0 1.708.1 2.496.28a6.43 6.43 0 0 1 2.151.903c.64.41 1.166.952 1.593 1.609.426.657.689 1.461.804 2.397h-3.875c-.181-.887-.575-1.494-1.215-1.79-.64-.312-1.379-.46-2.2-.46-.263 0-.575.017-.936.066-.361.05-.69.132-1.018.247a2.21 2.21 0 0 0-.805.525c-.213.23-.328.525-.328.903 0 .46.164.821.476 1.1.312.28.723.51 1.232.706.509.18 1.083.345 1.74.476.657.132 1.33.28 2.02.427.673.148 1.33.345 1.986.559a5.997 5.997 0 0 1 1.741.886 4.37 4.37 0 0 1 1.231 1.396c.312.558.477 1.264.477 2.085 0 1.002-.23 1.84-.69 2.545A5.465 5.465 0 0 1 108.959 39a8.35 8.35 0 0 1-2.43.953c-.887.197-1.774.295-2.644.295-1.067 0-2.052-.115-2.956-.361-.903-.246-1.69-.608-2.347-1.084a5.374 5.374 0 0 1-1.56-1.822c-.378-.723-.575-1.593-.608-2.594h3.744v-.033zm12.249-11.445h2.807v-5.057h3.711v5.057h3.35v2.775h-3.35v8.998c0 .394.017.723.049 1.018.033.28.115.526.23.723.115.197.296.344.542.443.247.098.558.148.985.148.263 0 .526 0 .789-.017.262-.016.525-.05.788-.115v2.874c-.411.049-.821.082-1.199.131a9.46 9.46 0 0 1-1.199.066c-.985 0-1.773-.099-2.364-.28-.591-.18-1.067-.46-1.396-.82-.344-.362-.558-.805-.689-1.347a10.165 10.165 0 0 1-.214-1.855v-9.934h-2.807v-2.808h-.033zm12.495 0h3.514v2.283h.065c.526-.986 1.248-1.675 2.184-2.102a7.198 7.198 0 0 1 3.038-.64c1.33 0 2.479.23 3.464.706.985.46 1.806 1.1 2.463 1.92.657.822 1.133 1.774 1.462 2.858.328 1.083.492 2.25.492 3.48 0 1.134-.148 2.234-.443 3.284a8.8 8.8 0 0 1-1.33 2.825c-.591.82-1.347 1.461-2.266 1.953-.92.493-1.987.74-3.235.74-.542 0-1.083-.05-1.625-.148a7.169 7.169 0 0 1-1.56-.477 5.616 5.616 0 0 1-1.379-.837 5.213 5.213 0 0 1-1.068-1.182h-.065v8.407h-3.711v-23.07zm12.971 8.44c0-.755-.098-1.494-.295-2.217a5.98 5.98 0 0 0-.887-1.904 4.524 4.524 0 0 0-1.461-1.33 4.1 4.1 0 0 0-2.02-.51c-1.56 0-2.742.543-3.53 1.626-.788 1.084-1.182 2.529-1.182 4.335 0 .854.098 1.642.312 2.364.213.723.509 1.347.936 1.872.41.526.903.936 1.477 1.232.575.312 1.248.46 2.004.46.853 0 1.559-.181 2.151-.526a4.533 4.533 0 0 0 1.444-1.346 5.584 5.584 0 0 0 .821-1.889c.148-.706.23-1.428.23-2.167zm6.552-14.86h3.711v3.514h-3.711v-3.514zm0 6.42h3.711v16.847h-3.711V22.908zm7.027-6.42h3.711v23.267h-3.711V16.488zm15.09 23.726c-1.347 0-2.545-.23-3.596-.673a7.926 7.926 0 0 1-2.676-1.839 8.005 8.005 0 0 1-1.659-2.807c-.377-1.084-.575-2.283-.575-3.58 0-1.28.198-2.463.575-3.547a8.007 8.007 0 0 1 1.659-2.807c.722-.788 1.625-1.396 2.676-1.84 1.051-.443 2.249-.672 3.596-.672 1.346 0 2.545.23 3.596.673a7.949 7.949 0 0 1 2.676 1.839 8.004 8.004 0 0 1 1.658 2.808c.378 1.083.575 2.265.575 3.546 0 1.297-.197 2.496-.575 3.58a8.003 8.003 0 0 1-1.658 2.807c-.722.788-1.626 1.396-2.676 1.84-1.051.443-2.25.672-3.596.672zm0-2.939c.821 0 1.543-.18 2.151-.525a4.58 4.58 0 0 0 1.494-1.363c.394-.558.673-1.199.87-1.905a8.699 8.699 0 0 0 .279-2.167 8.77 8.77 0 0 0-.279-2.15 5.606 5.606 0 0 0-.87-1.905 4.533 4.533 0 0 0-1.494-1.347c-.608-.345-1.33-.525-2.151-.525-.821 0-1.544.18-2.151.525a4.72 4.72 0 0 0-1.494 1.346c-.394.559-.674 1.183-.871 1.905a8.818 8.818 0 0 0-.279 2.151c0 .739.099 1.461.279 2.167.181.706.477 1.347.871 1.905a4.57 4.57 0 0 0 1.494 1.363c.607.361 1.33.525 2.151.525zm9.589-14.367h2.807v-5.057h3.711v5.057h3.35v2.775h-3.35v8.998c0 .394.017.723.05 1.018.032.28.114.526.229.723.115.197.296.344.542.443.247.098.559.148.985.148.263 0 .526 0 .789-.017.262-.016.525-.05.788-.115v2.874c-.411.049-.821.082-1.199.131a9.46 9.46 0 0 1-1.199.066c-.985 0-1.773-.099-2.364-.28-.591-.18-1.067-.46-1.396-.82-.344-.362-.558-.805-.689-1.347a10.165 10.165 0 0 1-.214-1.855v-9.934h-2.807v-2.808h-.033z"/><path fill="#00B67A" d="M44.546 16.488h-17.01L22.28.298l-5.27 16.19L0 16.472l13.776 10.016-5.27 16.173 13.775-10 13.76 10-5.254-16.173 13.76-10z"/><path fill="#005128" d="m31.969 30.15-1.183-3.662-8.505 6.173 9.688-2.512z"/></g><defs><clipPath id="a"><path fill="#fff" d="M0 .299h186v45.679H0z"/></clipPath></defs></svg>